# xmcd CD database file
#
# Track frame offsets:
#	150
#	22543
#	43939
#	54630
#	68681
#	87078
#	100893
#	117457
#	136844
#	150462
#	165145
#	193324
#
# Disc length: 2778 seconds
#
# Revision: 0
# Processed by: cddbd v1.5.2PL0 Copyright (c) Steve Scherf et al.
# Submitted via: CDex 1.51
#
DISCID=900ad80c
DTITLE=Kenny Ball - Jazz Band Ball
DYEAR=1964
DGENRE=Jazz
TTITLE0=At The Jazz Band Ball
TTITLE1=Memphis Blues
TTITLE2=I Want A Girl Just Like The Girl That Married Dear Old Dad
TTITLE3=Temtation Rag
TTITLE4=New Orleans
TTITLE5=Steamboat Stomp
TTITLE6=The Chant
TTITLE7=Jazz Me Blues
TTITLE8=I've Been Floating Down The Old Green River
TTITLE9=There Ain't No Sweet Man Worth The Salt Of My Tears
TTITLE10=Am I Blue
TTITLE11=That's A Plenty
EXTD=YEAR: 1964
EXTT0=
EXTT1=
EXTT2=
EXTT3=
EXTT4=
EXTT5=
EXTT6=
EXTT7=
EXTT8=
EXTT9=
EXTT10=
EXTT11=
PLAYORDER=
